<svg width="44" height="40" viewBox="0 0 44 40" fill="none" xmlns="http://www.w3.org/2000/svg">
<path d="M30.1121 32.92L28.9594 24.38C28.7961 23.1704 28.1608 22.0576 27.1731 21.251C26.1853 20.4444 24.9132 19.9995 23.5958 20H19.6263C18.3095 20.0003 17.0383 20.4456 16.0513 21.2521C15.0643 22.0587 14.4295 23.1709 14.2663 24.38L13.1118 32.92C13.0484 33.3892 13.0937 33.8655 13.2445 34.3172C13.3953 34.769 13.6483 35.1859 13.9866 35.5403C14.3249 35.8946 14.7408 36.1783 15.2067 36.3725C15.6726 36.5667 16.1778 36.667 16.6887 36.6667H26.537C27.0478 36.6668 27.5528 36.5663 28.0185 36.372C28.4841 36.1777 28.8998 35.894 29.2379 35.5397C29.576 35.1853 29.8288 34.7685 29.9796 34.3169C30.1303 33.8652 30.1755 33.389 30.1121 32.92V32.92Z" stroke="#EEAC0C" stroke-width="4" stroke-linecap="round" stroke-linejoin="round"/>
<path d="M21.6129 13.334C24.5971 13.334 27.0162 11.0954 27.0162 8.33398C27.0162 5.57256 24.5971 3.33398 21.6129 3.33398C18.6288 3.33398 16.2097 5.57256 16.2097 8.33398C16.2097 11.0954 18.6288 13.334 21.6129 13.334Z" stroke="#EEAC0C" stroke-width="4"/>
<path d="M7.20432 18.3346C9.19374 18.3346 10.8065 16.8423 10.8065 15.0013C10.8065 13.1604 9.19374 11.668 7.20432 11.668C5.21491 11.668 3.60217 13.1604 3.60217 15.0013C3.60217 16.8423 5.21491 18.3346 7.20432 18.3346Z" stroke="#EEAC0C" stroke-width="4"/>
<path d="M36.0215 18.3346C38.0109 18.3346 39.6236 16.8423 39.6236 15.0013C39.6236 13.1604 38.0109 11.668 36.0215 11.668C34.032 11.668 32.4193 13.1604 32.4193 15.0013C32.4193 16.8423 34.032 18.3346 36.0215 18.3346Z" stroke="#EEAC0C" stroke-width="4"/>
<path d="M7.20429 23.334H6.65316C5.80046 23.3339 4.97537 23.6137 4.32468 24.1237C3.674 24.6336 3.2399 25.3407 3.09964 26.119L2.49988 29.4523C2.41381 29.9299 2.4412 30.4191 2.58015 30.8859C2.7191 31.3527 2.96627 31.7858 3.30447 32.1553C3.64267 32.5247 4.06377 32.8215 4.5385 33.0251C5.01323 33.2286 5.53018 33.334 6.0534 33.334H12.6075M36.0215 23.334H36.5726C37.4253 23.3339 38.2504 23.6137 38.9011 24.1237C39.5518 24.6336 39.9859 25.3407 40.1261 26.119L40.7259 29.4523C40.812 29.9299 40.7846 30.4191 40.6456 30.8859C40.5067 31.3527 40.2595 31.7858 39.9213 32.1553C39.5831 32.5247 39.162 32.8215 38.6873 33.0251C38.2125 33.2286 37.6956 33.334 37.1724 33.334H30.6183" stroke="#EEAC0C" stroke-width="4" stroke-linecap="round" stroke-linejoin="round"/>
</svg>
